<svg xmlns="http://www.w3.org/2000/svg" xmlns:svg="http://www.w3.org/2000/svg" id="svg2" width="16" height="16" version="1.1" viewBox="0 0 16 16"><metadata id="metadata7"/><g id="layer1" transform="translate(0,-1036.3622)"><path id="path4737" d="m 4.3764259,1047.9857 7.2471481,-7.2472" style="fill:none;fill-rule:evenodd;stroke:#000;stroke-width:2.35532308;stroke-linecap:round;stroke-linejoin:miter;stroke-miterlimit:4;stroke-dasharray:none;stroke-opacity:1"/><path id="path4739" d="m 4.3764259,1040.7385 7.2471481,7.2472" style="fill:none;fill-rule:evenodd;stroke:#000;stroke-width:2.35532308;stroke-linecap:round;stroke-linejoin:miter;stroke-miterlimit:4;stroke-dasharray:none;stroke-opacity:1"/><path style="color:#000;font-style:normal;font-variant:normal;font-weight:400;font-stretch:normal;font-size:medium;line-height:normal;font-family:sans-serif;text-indent:0;text-align:start;text-decoration:none;text-decoration-line:none;text-decoration-style:solid;text-decoration-color:#000;letter-spacing:normal;word-spacing:normal;text-transform:none;direction:ltr;block-progression:tb;writing-mode:lr-tb;baseline-shift:baseline;text-anchor:start;white-space:normal;clip-rule:nonzero;display:inline;overflow:visible;visibility:visible;opacity:1;isolation:auto;mix-blend-mode:normal;color-interpolation:sRGB;color-interpolation-filters:linearRGB;solid-color:#000;solid-opacity:1;fill:#fff;fill-opacity:.78431373;fill-rule:evenodd;stroke:none;stroke-width:1.60000002;stroke-linecap:round;stroke-linejoin:miter;stroke-miterlimit:4;stroke-dasharray:none;stroke-dashoffset:0;stroke-opacity:1;color-rendering:auto;image-rendering:auto;shape-rendering:auto;text-rendering:auto;enable-background:accumulate" id="path4140" d="m 4.3693486,1040.0079 a 0.72478729,0.72478729 0 0 0 -0.5060264,1.2438 l 3.1104703,3.1105 -3.1104703,3.1122 a 0.72501285,0.72501285 0 0 0 1.0262074,1.0245 L 8,1045.3884 l 3.110471,3.1105 a 0.72501272,0.72501272 0 0 0 1.026207,-1.0245 l -3.1104705,-3.1122 3.1104705,-3.1105 a 0.72478729,0.72478729 0 0 0 -0.527259,-1.2438 0.72478729,0.72478729 0 0 0 -0.498948,0.2194 L 8,1043.3378 4.8895296,1040.2273 a 0.72478729,0.72478729 0 0 0 -0.520181,-0.2194 z"/></g></svg>