<svg xmlns="http://www.w3.org/2000/svg" xmlns:svg="http://www.w3.org/2000/svg" id="svg8" width="24" height="24" version="1.1" viewBox="0 0 6.35 6.35"><metadata id="metadata5"/><g id="layer1" transform="translate(0,-290.65)"><path style="color:#000;font-style:normal;font-variant:normal;font-weight:400;font-stretch:normal;font-size:medium;line-height:normal;font-family:sans-serif;font-variant-ligatures:normal;font-variant-position:normal;font-variant-caps:normal;font-variant-numeric:normal;font-variant-alternates:normal;font-feature-settings:normal;text-indent:0;text-align:start;text-decoration:none;text-decoration-line:none;text-decoration-style:solid;text-decoration-color:#000;letter-spacing:normal;word-spacing:normal;text-transform:none;writing-mode:lr-tb;direction:ltr;text-orientation:mixed;dominant-baseline:auto;baseline-shift:baseline;text-anchor:start;white-space:normal;shape-padding:0;clip-rule:nonzero;display:inline;overflow:visible;visibility:visible;opacity:1;isolation:auto;mix-blend-mode:normal;color-interpolation:sRGB;color-interpolation-filters:linearRGB;solid-color:#000;solid-opacity:1;vector-effect:none;fill:#000;fill-opacity:1;fill-rule:nonzero;stroke:none;stroke-width:.99999994px;stroke-linecap:butt;stroke-linejoin:miter;stroke-miterlimit:4;stroke-dasharray:none;stroke-dashoffset:0;stroke-opacity:1;color-rendering:auto;image-rendering:auto;shape-rendering:auto;text-rendering:auto;enable-background:accumulate" id="path4851" d="M 11.501953 0.001953125 L 11.501953 2.0175781 A 9.9999999 9.9999999 0 0 1 12 2 A 9.9999999 9.9999999 0 0 1 12.498047 2.0253906 L 12.498047 0.001953125 L 11.501953 0.001953125 z M 6.4511719 1.3886719 L 5.5878906 1.890625 L 6.5761719 3.6015625 A 9.9999999 9.9999999 0 0 1 7.4414062 3.1015625 L 6.4511719 1.3886719 z M 17.546875 1.3886719 L 16.554688 3.109375 A 9.9999999 9.9999999 0 0 1 17.419922 3.6074219 L 18.410156 1.890625 L 17.546875 1.3886719 z M 1.890625 5.5898438 L 1.3886719 6.453125 L 3.109375 7.4453125 A 9.9999999 9.9999999 0 0 1 3.6074219 6.5800781 L 1.890625 5.5898438 z M 22.109375 5.5898438 L 20.398438 6.5761719 A 9.9999999 9.9999999 0 0 1 20.898438 7.4414062 L 22.611328 6.453125 L 22.109375 5.5898438 z M 0 11.501953 L 0 12.498047 L 2.0175781 12.498047 A 9.9999999 9.9999999 0 0 1 2 12 A 9.9999999 9.9999999 0 0 1 2.0253906 11.501953 L 0 11.501953 z M 21.982422 11.501953 A 9.9999999 9.9999999 0 0 1 22 12 A 9.9999999 9.9999999 0 0 1 21.974609 12.498047 L 23.998047 12.498047 L 23.998047 11.501953 L 21.982422 11.501953 z M 20.890625 16.556641 A 9.9999999 9.9999999 0 0 1 20.392578 17.419922 L 22.109375 18.412109 L 22.611328 17.548828 L 20.890625 16.556641 z M 3.1015625 16.560547 L 1.3886719 17.548828 L 1.890625 18.412109 L 3.6015625 17.423828 A 9.9999999 9.9999999 0 0 1 3.1015625 16.560547 z M 6.5800781 20.392578 L 5.5878906 22.109375 L 6.4511719 22.611328 L 7.4433594 20.890625 A 9.9999999 9.9999999 0 0 1 6.5800781 20.392578 z M 17.423828 20.398438 A 9.9999999 9.9999999 0 0 1 16.558594 20.898438 L 17.546875 22.611328 L 18.410156 22.109375 L 17.423828 20.398438 z M 11.501953 21.974609 L 11.501953 24 L 12.498047 24 L 12.498047 21.982422 A 9.9999999 9.9999999 0 0 1 12 22 A 9.9999999 9.9999999 0 0 1 11.501953 21.974609 z" transform="matrix(0.26458333,0,0,0.26458333,0,290.65)"/><rect style="fill:#fff;fill-opacity:1;stroke:#3c3c3c;stroke-width:.27645266;stroke-opacity:1" id="rect4520" width="3.428" height="2.899" x="1.461" y="292.376"/></g></svg>