<svg xmlns="http://www.w3.org/2000/svg" xmlns:svg="http://www.w3.org/2000/svg" xmlns:xlink="http://www.w3.org/1999/xlink" id="svg7549" width="16" height="16" version="1.1" viewBox="0 0 4.233 4.233"><g id="layer1"><path id="path4919-8" style="color:#000;fill:#fffffe;fill-rule:evenodd;stroke-width:1.00000001;stroke-linejoin:miter;stroke:#000006;stroke-opacity:1;stroke-miterlimit:4;stroke-dasharray:none;fill-opacity:1;stroke-linecap:butt" d="M 4.0019531 4.5039062 L 4.0019531 6.5039062 L 6.5039062 6.5039062 L 6.5039062 12.498047 A 1.0001001 1.0001001 0 0 0 7.5 13.501953 L 12.003906 13.501953 L 12.003906 11.501953 L 8.4960938 11.501953 L 8.4960938 6.5039062 L 13 6.5039062 L 13 4.5039062 L 4.0019531 4.5039062 z" transform="scale(0.26458333)"/><g id="src/libs/utils/images/classparent" transform="matrix(0.21789191,0,0,0.21789191,-39.173851,-119.94561)" style="fill:silver;fill-opacity:1;stroke:#000;stroke-width:1.21428;stroke-linejoin:miter;stroke-opacity:1"><path style="fill:silver;fill-opacity:1;fill-rule:evenodd;stroke:#000;stroke-width:1.21428px;stroke-linecap:butt;stroke-linejoin:miter;stroke-opacity:1" id="path4895-8" d="m 186.5,552 3,3 -5.5,5.5 -3,-3 z"/></g><g id="src/libs/utils/images/classmemberfunction" transform="matrix(0.20352688,0,0,0.20352688,-36.126044,-112.04156)" style="fill:silver;fill-opacity:1;stroke:#000;stroke-width:1.29999;stroke-linejoin:miter;stroke-opacity:1"><path style="fill:silver;fill-opacity:1;fill-rule:evenodd;stroke:#000;stroke-width:1.29999px;stroke-linecap:butt;stroke-linejoin:miter;stroke-opacity:1" id="cppclassmember" d="m 194.5,554.5 2.5,2.5 -4,4 -2.5,-2.5 z"/></g><g id="src/libs/utils/images/classmembervariable" transform="matrix(0.20352636,0,0,0.20352636,-36.125943,-111.61387)" style="fill:silver;fill-opacity:1;stroke:#000;stroke-width:1.3;stroke-linejoin:miter;stroke-opacity:1"><use id="use4914-9-5" width="100%" height="100%" x="0" y="0" transform="translate(0,7)" xlink:href="#cppclassmember" style="fill:silver;fill-opacity:1;stroke:#000;stroke-width:1.53636;stroke-linejoin:miter;stroke-opacity:1"/></g></g></svg>