<svg xmlns="http://www.w3.org/2000/svg" enable-background="new 0 0 612 792" version="1.1" viewBox="0 0 612 792" xml:space="preserve"><rect width="361.64" height="361.64" x="194.73" y="284.73" fill="#fff"/><g transform="translate(8)"><rect width="27.818" height="27.818" x="409.27" y="284.73" fill="#888A85"/></g><g transform="translate(10)"><rect width="27.818" height="27.818" x="462.91" y="284.73" fill="#888A85"/></g><g transform="translate(12)"><rect width="27.817" height="27.818" x="516.55" y="284.73" fill="#888A85"/></g><g transform="translate(0 8)"><rect width="27.818" height="27.818" x="194.73" y="499.27" fill="#888A85"/></g><g transform="translate(0 10)"><rect width="27.818" height="27.818" x="194.73" y="552.91" fill="#888A85"/></g><g transform="translate(12 2)"><rect width="27.817" height="27.818" x="516.55" y="338.36" fill="#888A85"/></g><g transform="translate(12 4)"><rect width="27.817" height="27.818" x="516.55" y="392" fill="#888A85"/></g><g transform="translate(12 6)"><rect width="27.817" height="27.817" x="516.55" y="445.64" fill="#888A85"/></g><g transform="translate(12 8)"><rect width="27.817" height="27.818" x="516.55" y="499.27" fill="#888A85"/></g><g transform="translate(12 10)"><rect width="27.817" height="27.818" x="516.55" y="552.91" fill="#888A85"/></g><g transform="translate(0 12)"><rect width="27.818" height="27.817" x="194.73" y="606.55" fill="#888A85"/></g><g transform="translate(2 12)"><rect width="27.818" height="27.817" x="248.36" y="606.55" fill="#888A85"/></g><g transform="translate(4 12)"><rect width="27.818" height="27.817" x="302" y="606.55" fill="#888A85"/></g><g transform="translate(6 12)"><rect width="27.817" height="27.817" x="355.64" y="606.55" fill="#888A85"/></g><g transform="translate(8 12)"><rect width="27.818" height="27.817" x="409.27" y="606.55" fill="#888A85"/></g><g transform="translate(10 12)"><rect width="27.818" height="27.817" x="462.91" y="606.55" fill="#888A85"/></g><g transform="translate(12 12)"><rect width="27.817" height="27.817" x="516.55" y="606.55" fill="#888A85"/></g><g transform="matrix(6.1232e-17 1 -1 6.1232e-17 18 0)"><path fill="#888A85" d="m507.27-65.455v-333.82h-333.82v333.82h333.82zm-27.818-306h-278.18v278.18h278.18v-278.18z"/><linearGradient id="b" x1="792.5" x2="793.5" y1="17.502" y2="17.502" gradientTransform="matrix(0 -278.18 -278.18 0 5069.9 2.2023e5)" gradientUnits="userSpaceOnUse"><stop offset="0" stop-color="#F89797"/><stop offset="1" stop-color="#F35B5B"/></linearGradient><rect width="278.18" height="278.18" x="201.27" y="-371.45" fill="url(#b)" transform="matrix(2.5789e-6 1 -1 2.5789e-6 108 -572.73)"/></g><g transform="matrix(2.4493e-17 .4 -.4 2.4493e-17 18.6 11.4)"><path fill="#888A85" d="m1448.3-788.05v-417.27h-417.27v417.27h417.27zm-69.546-347.73h-278.18v278.18h278.18v-278.18z"/><linearGradient id="a" x1="1952.7" x2="1953.7" y1="45.262" y2="45.262" gradientTransform="matrix(0 -111.27 -111.27 0 6136.9 2.1629e5)" gradientUnits="userSpaceOnUse"><stop offset="0" stop-color="#F79D9D"/><stop offset="1" stop-color="#F35E5D"/></linearGradient><rect width="278.18" height="278.18" x="1100.6" y="-1135.8" fill="url(#a)" transform="matrix(2.5789e-6 1 -1 2.5789e-6 243 -2236.4)"/></g><rect width="27.818" height="27.818" x="194.73" y="284.73" fill="#888A85"/><g transform="translate(0 2)"><rect width="27.818" height="27.818" x="194.73" y="338.36" fill="#888A85"/></g><g transform="translate(0 4)"><rect width="27.818" height="27.818" x="194.73" y="392" fill="#888A85"/></g><g transform="translate(0 6)"><rect width="27.818" height="27.817" x="194.73" y="445.64" fill="#888A85"/></g><g transform="translate(2)"><rect width="27.818" height="27.818" x="248.36" y="284.73" fill="#888A85"/></g><g transform="translate(4)"><rect width="27.818" height="27.818" x="302" y="284.73" fill="#888A85"/></g><g transform="translate(6)"><rect width="27.817" height="27.818" x="355.64" y="284.73" fill="#888A85"/></g><g transform="translate(5)"><rect width="27.818" height="27.818" x="328.82" y="284.73" fill="#fff"/></g><g transform="translate(3)"><rect width="27.818" height="27.818" x="275.18" y="284.73" fill="#fff"/></g><g transform="translate(1)"><rect width="27.818" height="27.818" x="221.54" y="284.73" fill="#fff"/></g><g transform="translate(0 1)"><rect width="27.818" height="27.818" x="194.73" y="311.54" fill="#fff"/></g><g transform="translate(0 3)"><rect width="27.818" height="27.818" x="194.73" y="365.18" fill="#fff"/></g><g transform="translate(0 5)"><rect width="27.818" height="27.818" x="194.73" y="418.82" fill="#fff"/></g><g transform="translate(7)"><rect width="27.818" height="27.818" x="382.45" y="284.73" fill="#fff"/></g><g transform="translate(0 7)"><rect width="27.818" height="27.817" x="194.73" y="472.46" fill="#fff"/></g></svg>